<svg width="77" height="40" viewBox="0 0 77 40" fill="none" xmlns="http://www.w3.org/2000/svg">
<path d="M28.7625 1.03232e-06V2L41.7625 2L41.7625 0L28.7625 1.03232e-06Z" fill="white"/>
<path d="M50.8978 29V28.64L53.4178 28.172V6.788C53.4178 6.236 53.1898 5.696 52.7338 5.168C52.2778 4.616 51.6658 4.184 50.8978 3.872V3.512H56.5138L72.7138 24.104H73.1818V12.62C73.1818 11.78 73.1098 10.976 72.9658 10.208C72.8218 9.44 72.5818 8.732 72.2458 8.084C71.9338 7.412 71.5378 6.8 71.0578 6.248C70.5778 5.696 70.0018 5.228 69.3298 4.844C68.6818 4.436 67.9378 4.112 67.0978 3.872V3.512H76.4578V3.872L73.7218 4.34V29H71.4898L54.4258 7.4H53.9578V18.272C53.9578 19.28 54.0298 20.228 54.1738 21.116C54.3418 21.98 54.5938 22.796 54.9298 23.564C55.2658 24.308 55.6978 25.004 56.2258 25.652C56.7538 26.276 57.3898 26.84 58.1338 27.344C58.8778 27.848 59.7538 28.28 60.7618 28.64V29H50.8978Z" fill="white"/>
<path d="M22.4277 29V28.64L24.6597 28.172L34.3077 3.512H37.0437L46.5477 28.172L48.7437 28.64V29H39.5637V28.712L42.1197 28.208L33.9477 6.86H33.5517L29.0877 18.74C28.6557 19.82 28.3197 20.852 28.0797 21.836C27.8637 22.82 27.7557 23.684 27.7557 24.428C27.7557 25.244 27.8997 25.976 28.1877 26.624C28.4997 27.272 28.9917 27.776 29.6637 28.136C30.3357 28.472 31.2117 28.64 32.2917 28.64V29H22.4277ZM28.6197 18.632V18.272L38.6637 17.876V18.632H28.6197Z" fill="white"/>
<path d="M10.116 29.54C8.988 29.54 7.824 29.42 6.624 29.18C5.448 28.964 4.296 28.652 3.168 28.244C2.04 27.812 0.984 27.296 0 26.696L0.72 18.596H1.26L2.628 23.492C2.892 24.668 3.384 25.676 4.104 26.516C4.848 27.332 5.76 27.956 6.84 28.388C7.944 28.796 9.18 29 10.548 29C11.796 29 12.864 28.832 13.752 28.496C14.64 28.16 15.312 27.668 15.768 27.02C16.248 26.372 16.488 25.616 16.488 24.752C16.488 23.816 16.26 22.988 15.804 22.268C15.348 21.548 14.58 20.852 13.5 20.18C12.42 19.484 10.956 18.752 9.108 17.984C6.9 16.976 5.148 16.052 3.852 15.212C2.556 14.348 1.632 13.472 1.08 12.584C0.528 11.696 0.252 10.712 0.252 9.632C0.252 8.648 0.48 7.748 0.936 6.932C1.392 6.116 2.04 5.42 2.88 4.844C3.744 4.244 4.776 3.788 5.976 3.476C7.176 3.14 8.532 2.972 10.044 2.972C11.388 2.972 12.66 3.104 13.86 3.368C15.06 3.608 16.152 3.944 17.136 4.376C18.12 4.808 18.948 5.3 19.62 5.852L18.432 13.376H17.928L17.28 10.172C16.92 8.612 16.404 7.34 15.732 6.356C15.06 5.372 14.22 4.652 13.212 4.196C12.228 3.74 11.052 3.512 9.684 3.512C8.364 3.512 7.236 3.68 6.3 4.016C5.364 4.328 4.644 4.784 4.14 5.384C3.636 5.984 3.384 6.716 3.384 7.58C3.384 8.444 3.636 9.236 4.14 9.956C4.668 10.676 5.532 11.408 6.732 12.152C7.956 12.896 9.6 13.712 11.664 14.6C13.296 15.272 14.652 15.92 15.732 16.544C16.836 17.168 17.724 17.792 18.396 18.416C19.068 19.04 19.548 19.7 19.836 20.396C20.148 21.092 20.304 21.86 20.304 22.7C20.304 23.636 20.124 24.476 19.764 25.22C19.404 25.964 18.9 26.612 18.252 27.164C17.604 27.692 16.848 28.136 15.984 28.496C15.144 28.856 14.22 29.12 13.212 29.288C12.228 29.456 11.196 29.54 10.116 29.54Z" fill="white"/>
<path d="M70.3514 39.1226C69.7927 39.1226 69.2953 38.9796 68.8593 38.6934C68.43 38.4072 68.0928 38.0018 67.8475 37.4772C67.609 36.9526 67.4898 36.3326 67.4898 35.6172C67.4898 34.9018 67.609 34.2886 67.8475 33.7776C68.0928 33.2598 68.43 32.8646 68.8593 32.5921C69.2953 32.3127 69.7927 32.173 70.3514 32.173C70.9169 32.173 71.4143 32.3127 71.8435 32.5921C72.2728 32.8646 72.61 33.2598 72.8553 33.7776C73.1006 34.2886 73.2232 34.9018 73.2232 35.6172C73.2232 36.3326 73.1006 36.9526 72.8553 37.4772C72.61 38.0018 72.2728 38.4072 71.8435 38.6934C71.4143 38.9796 70.9169 39.1226 70.3514 39.1226ZM70.3514 38.3766C70.7534 38.3766 71.1009 38.2642 71.3938 38.0393C71.6936 37.8077 71.9253 37.4874 72.0888 37.0786C72.2523 36.663 72.3341 36.1759 72.3341 35.6172C72.3341 34.786 72.1535 34.1285 71.7924 33.6447C71.4313 33.161 70.951 32.9191 70.3514 32.9191C69.7518 32.9191 69.2715 33.161 68.9104 33.6447C68.5493 34.1285 68.3687 34.786 68.3687 35.6172C68.3687 36.1759 68.4505 36.663 68.614 37.0786C68.7775 37.4874 69.0092 37.8077 69.309 38.0393C69.6087 38.2642 69.9562 38.3766 70.3514 38.3766Z" fill="white"/>
<path d="M57.0174 39V32.2957H57.8657V39H57.0174Z" fill="white"/>
<path d="M42.5537 39V32.2957H44.2298C45.2654 32.2957 46.0524 32.5852 46.5906 33.1644C47.1289 33.7367 47.398 34.5543 47.398 35.6172C47.398 36.6869 47.1289 37.5181 46.5906 38.1109C46.0592 38.7036 45.2859 39 44.2707 39H42.5537ZM43.402 38.305H44.1685C44.952 38.305 45.538 38.07 45.9263 37.5999C46.3215 37.1229 46.5191 36.462 46.5191 35.6172C46.5191 34.7723 46.3215 34.1251 45.9263 33.6754C45.538 33.2189 44.952 32.9906 44.1685 32.9906H43.402V38.305Z" fill="white"/>
<path d="M30.1719 39.1226C29.7154 39.1226 29.3032 39.0307 28.9353 38.8467C28.5741 38.6627 28.288 38.3596 28.0768 37.9371C27.8656 37.5147 27.76 36.9458 27.76 36.2304V32.2957H28.6082V36.2508C28.6082 36.7891 28.6763 37.2149 28.8126 37.5283C28.9557 37.8349 29.1431 38.0529 29.3747 38.1824C29.6132 38.3119 29.8789 38.3766 30.1719 38.3766C30.4717 38.3766 30.7408 38.3119 30.9793 38.1824C31.2177 38.0529 31.4051 37.8349 31.5414 37.5283C31.6844 37.2149 31.756 36.7891 31.756 36.2508V32.2957H32.5736V36.2304C32.5736 36.9458 32.468 37.5147 32.2568 37.9371C32.0455 38.3596 31.7594 38.6627 31.3983 38.8467C31.0372 39.0307 30.6284 39.1226 30.1719 39.1226Z" fill="white"/>
<path d="M15.5253 39V33.0111H13.5017V32.2957H18.4073V33.0111H16.3837V39H15.5253Z" fill="white"/>
<path d="M2.55967 39.1226C2.08955 39.1226 1.65349 39.0341 1.25151 38.8569C0.849519 38.673 0.502039 38.4311 0.209065 38.1313L0.720065 37.5385C0.958532 37.7906 1.23788 37.995 1.55811 38.1517C1.88515 38.3016 2.22241 38.3766 2.56989 38.3766C3.01275 38.3766 3.35683 38.2778 3.60211 38.0802C3.84739 37.8758 3.97003 37.6101 3.97003 37.283C3.97003 37.0514 3.91893 36.8674 3.81673 36.7312C3.72134 36.5949 3.58848 36.4791 3.41815 36.3837C3.25463 36.2883 3.06726 36.1929 2.85605 36.0975L1.89537 35.6785C1.68415 35.5899 1.47294 35.4741 1.26173 35.331C1.05733 35.1879 0.883585 35.004 0.740505 34.7791C0.604239 34.5543 0.536105 34.2784 0.536105 33.9513C0.536105 33.6106 0.624679 33.3075 0.801825 33.0417C0.985785 32.7692 1.23788 32.558 1.55811 32.4081C1.87833 32.2514 2.23944 32.173 2.64143 32.173C3.04341 32.173 3.41474 32.2514 3.75541 32.4081C4.09607 32.558 4.38564 32.7556 4.62411 33.0009L4.16421 33.5527C3.95981 33.3552 3.73156 33.2019 3.47947 33.0928C3.23419 32.977 2.95484 32.9191 2.64143 32.9191C2.26669 32.9191 1.9635 33.0077 1.73185 33.1848C1.50701 33.362 1.39459 33.6004 1.39459 33.9002C1.39459 34.1114 1.44909 34.2886 1.55811 34.4317C1.67393 34.5679 1.81701 34.6803 1.98735 34.7689C2.15768 34.8575 2.33142 34.9393 2.50857 35.0142L3.45903 35.423C3.71793 35.532 3.94959 35.6649 4.15399 35.8216C4.3652 35.9715 4.53212 36.1588 4.65477 36.3837C4.77741 36.6017 4.83873 36.8776 4.83873 37.2115C4.83873 37.5658 4.74675 37.8894 4.56279 38.1824C4.37883 38.4686 4.11651 38.6968 3.77585 38.8671C3.43518 39.0375 3.02979 39.1226 2.55967 39.1226Z" fill="white"/>
</svg>
